<?xml version="1.0" standalone="no"?><!DOCTYPE svg PUBLIC "-//W3C//DTD SVG 1.1//EN" "http://www.w3.org/Graphics/SVG/1.1/DTD/svg11.dtd"><svg t="1585631762233" class="icon" viewBox="0 0 1048 1024" version="1.1" xmlns="http://www.w3.org/2000/svg" p-id="2243" xmlns:xlink="http://www.w3.org/1999/xlink" width="131" height="128"><defs><style type="text/css"></style></defs><path d="M987.136 407.560192a61.27616 61.27616 0 0 0-19.775488 3.2768C910.966784 344.014848 852.21376 315.392 772.096 315.392c-20.774912 0-41.762816 3.35872-62.464 9.8304-4.104192-88.22784-38.01088-175.7184-93.7984-237.461504C564.396032 30.834688 499.54816 0.49152 428.31872 0L426.729472 0c-47.300608 0-97.787904 14.5408-150.110208 43.204608A61.44 61.44 0 0 0 165.888 79.880192a61.44 61.44 0 0 0 110.75584 36.651008c1.703936 0.843776 3.473408 1.589248 5.316608 2.21184 40.3456 13.43488 66.912256 35.38944 81.215488 67.108864 18.890752 41.844736 13.39392 92.766208 5.013504 129.204224-39.518208-21.438464-79.978496-31.78496-119.824384-30.35136-60.342272 2.187264-118.595584 33.169408-168.460288 89.57952-2.21184 2.49856-4.01408 5.20192-5.505024 8.02816A61.784064 61.784064 0 0 0 61.44 380.928c-33.939456 0-61.44 29.548544-61.44 63.488 0 33.931264 27.500544 59.392 61.44 59.392a61.448192 61.448192 0 0 0 59.14624-44.826624c26.624-4.087808 47.210496 0.73728 64.454656 15.07328 43.515904 36.159488 67.067904 129.056768 70.148096 276.2752a90.7264 90.7264 0 0 0-49.340416 32.145408 90.693632 90.693632 0 0 0-16.842752 78.004224l31.924224 130.2528a40.96 40.96 0 0 0 39.780352 31.21152h527.1552a40.96 40.96 0 0 0 39.780352-31.21152l31.916032-130.2528c6.71744-27.394048 0.57344-55.812096-16.83456-78.004224a90.76736 90.76736 0 0 0-47.702016-31.719424 983.77728 983.77728 0 0 1-0.2048-47.423488 40.96 40.96 0 1 0-81.895424-1.744896c-0.319488 14.639104-0.278528 30.007296 0.08192 45.924352H618.192896c-2.048-54.009856-15.507456-112.173056-37.699584-168.452096 12.853248-46.481408 40.46848-92.766208 75.931648-127.13984 36.323328-35.217408 77.4144-54.616064 115.67104-54.616064 27.27936 0 49.93024 4.366336 70.746112 14.508032-7.069696 2.760704-13.88544 5.98016-20.447232 9.650176-34.209792 19.152896-60.997632 50.249728-79.58528 92.438528a40.96 40.96 0 0 0 74.964992 33.05472c21.79072-49.43872 55.689216-69.738496 109.273088-65.1264a61.44 61.44 0 1 0 60.08832-74.268672z m-749.740032 3.489792a150.495232 150.495232 0 0 0-45.277184-26.001408c19.398656-11.517952 39.182336-17.752064 59.22816-18.481152 55.754752-1.990656 106.135552 34.865152 138.592256 66.158592 81.272832 78.389248 141.205504 208.44544 146.251776 314.802176h-199.0656c-2.359296-120.029184-18.579456-269.041664-99.729408-336.478208z m533.46304 418.398208c3.792896 0 6.135808 1.949696 7.421952 3.60448 1.26976 1.622016 2.596864 4.317184 1.72032 7.94624l-24.272896 99.04128H292.847616l-24.272896-99.04128a9.0112 9.0112 0 0 1 1.72032-7.94624c1.286144-1.654784 3.629056-3.60448 7.421952-3.60448H770.8672z m-143.85152-460.259328a324.97664 324.97664 0 0 0-27.60704 23.92064c-26.263552 25.460736-49.19296 56.066048-67.108864 88.932352-24.608768-40.38656-53.526528-77.447168-85.491712-108.281856a407.404544 407.404544 0 0 0-7.74144-7.266304c14.147584-45.17888 34.045952-135.74144-1.015808-213.917696-11.59168-25.853952-27.910144-48.00512-48.78336-66.3552A174.40768 174.40768 0 0 1 427.753472 81.92c60.2112 0.4096 102.457344 33.275904 127.295488 60.768256 51.011584 56.467456 79.151104 145.186816 71.958528 226.5088z" fill="#4A90E2" p-id="2244"></path></svg>